<svg width="24" height="24" viewBox="0 0 24 24" fill="none" xmlns="http://www.w3.org/2000/svg">
<path d="M11.383 2.6543L3.5 7.5M11.383 2.6543L19.5198 7.56882M11.383 2.6543L11.383 6.5M3.5 7.5L3.5 16.5M3.5 7.5L11.383 6.5M3.5 7.5L6.5 14.7168M11.383 21.5L19.5198 16.5M11.383 21.5L3.5 16.5M11.383 21.5L6.5 14.7168M11.383 21.5L16.5 14.7168M19.5198 16.5L19.5198 7.56882M19.5198 16.5L16.5 14.7168M19.5198 7.56882L11.383 6.5M19.5198 7.56882L16.5 14.7168M3.5 16.5L6.5 14.7168M16.5 14.7168L11.383 6.5M16.5 14.7168L6.5 14.7168M11.383 6.5L6.5 14.7168" stroke="black" stroke-linecap="round" stroke-linejoin="round"/>
</svg>
